<?xml version="1.0" encoding="UTF-8"?>
<!-- Uploaded to: SVG Find, www.svgrepo.com, Generator: SVG Find Mixer Tools -->
<svg fill="#000000" width="800px" height="800px" version="1.1" viewBox="144 144 512 512" xmlns="http://www.w3.org/2000/svg">
 <path d="m400 171.72c-126 0-228.28 102.27-228.28 228.28s102.27 228.28 228.28 228.28 228.28-102.27 228.28-228.28c-0.003906-126-102.28-228.28-228.28-228.28zm0 15.719c117.29 0 212.56 95.219 212.56 212.56-0.003906 117.34-95.273 212.55-212.56 212.55-117.29 0-212.56-95.27-212.56-212.55 0-117.29 95.27-212.56 212.56-212.56zm0 354.23c17.383 0 31.488-14.105 31.488-31.488v-133.81c0-17.383-14.105-31.488-31.488-31.488 0 0-4.332 0 0 0-17.383 0-31.488 14.105-31.488 31.488v133.81c0 17.434 14.105 31.488 31.488 31.488zm0-15.719c-8.7148 0-15.719-7.0547-15.719-15.719v-133.81c0-8.7148 7.0547-15.719 15.719-15.719s15.719 7.0547 15.719 15.719v133.81c0 8.668-7.0039 15.719-15.719 15.719zm0-259.76c-17.383 0-31.488 14.105-31.488 31.488 0 17.383 14.105 31.488 31.488 31.488s31.488-14.105 31.488-31.488c0-17.383-14.109-31.488-31.488-31.488zm0 15.719c8.6641 0 15.719 7.0547 15.719 15.719s-7.0547 15.719-15.719 15.719-15.719-7.0547-15.719-15.719c0-8.668 7.0508-15.719 15.719-15.719z"/>
</svg>